<?xml version="1.0"?>
<svg xmlns="http://www.w3.org/2000/svg" height="512px" version="1.1" viewBox="-21 0 511 512" width="512px">
<g id="surface1">
<path d="M 469.832031 42.667969 L 469.832031 0 L 149.832031 0 L 149.832031 42.667969 L 213.832031 42.667969 L 213.832031 67.925781 C 188.351562 76.933594 171.277344 100.976562 171.164062 128 L 171.164062 384 L 21.832031 384 C 10.050781 384 0.5 393.550781 0.5 405.332031 C 0.5 464.242188 48.253906 512 107.164062 512 C 166.074219 512 213.832031 464.242188 213.832031 405.332031 L 213.832031 128 C 213.832031 116.21875 223.382812 106.667969 235.164062 106.667969 C 246.949219 106.667969 256.5 116.21875 256.5 128 L 256.5 149.332031 L 299.164062 149.332031 L 299.164062 128 C 299.054688 100.976562 281.976562 76.933594 256.5 67.925781 L 256.5 42.667969 L 363.164062 42.667969 L 363.164062 67.925781 C 337.621094 76.839844 320.507812 100.933594 320.507812 127.988281 C 320.507812 155.042969 337.621094 179.140625 363.164062 188.054688 L 363.164062 323.414062 C 323.78125 336.828125 297.796875 374.417969 299.164062 416 C 296.453125 465.992188 334.535156 508.832031 384.5 512 C 434.464844 508.832031 472.542969 465.992188 469.832031 416 C 471.199219 374.417969 445.214844 336.828125 405.832031 323.414062 L 405.832031 188.074219 C 431.375 179.160156 448.488281 155.066406 448.488281 128.011719 C 448.488281 100.957031 431.375 76.859375 405.832031 67.945312 L 405.832031 42.667969 Z M 107.164062 469.332031 C 80.050781 469.304688 55.882812 452.222656 46.8125 426.667969 L 167.515625 426.667969 C 158.449219 452.222656 134.28125 469.304688 107.164062 469.332031 Z M 427.164062 416 C 429.679688 442.382812 410.789062 465.996094 384.5 469.332031 C 358.207031 465.996094 339.316406 442.382812 341.832031 416 C 339.316406 389.617188 358.207031 366.003906 384.5 362.667969 C 410.789062 366.003906 429.679688 389.617188 427.164062 416 Z M 384.5 149.332031 C 372.714844 149.332031 363.164062 139.78125 363.164062 128 C 363.164062 116.21875 372.714844 106.667969 384.5 106.667969 C 396.28125 106.667969 405.832031 116.21875 405.832031 128 C 405.832031 139.78125 396.28125 149.332031 384.5 149.332031 Z M 384.5 149.332031 " style=" fill-rule:nonzero;fill-opacity:1;" stroke="#D80027" fill="#D80027"/>
</g>
</svg>
